<svg width="274" height="248" viewBox="0 0 274 248" fill="none" xmlns="http://www.w3.org/2000/svg">
<mask id="path-1-inside-1_2_20" fill="white">
<path fill-rule="evenodd" clip-rule="evenodd" d="M29.4423 148.45C11.3758 132.883 0 110.225 0 85C0 38.0558 39.3989 0 88 0C106.138 0 122.995 5.30055 137 14.3855C151.005 5.30055 167.862 0 186 0C234.601 0 274 38.0558 274 85C274 110.225 262.624 132.883 244.558 148.45C244.574 148.727 244.476 149.014 244.235 149.236L137.677 247.376C137.295 247.729 136.705 247.729 136.323 247.376L29.7652 149.236C29.5242 149.014 29.4264 148.727 29.4423 148.45Z"/>
</mask>
<path fill-rule="evenodd" clip-rule="evenodd" d="M29.4423 148.45C11.3758 132.883 0 110.225 0 85C0 38.0558 39.3989 0 88 0C106.138 0 122.995 5.30055 137 14.3855C151.005 5.30055 167.862 0 186 0C234.601 0 274 38.0558 274 85C274 110.225 262.624 132.883 244.558 148.45C244.574 148.727 244.476 149.014 244.235 149.236L137.677 247.376C137.295 247.729 136.705 247.729 136.323 247.376L29.7652 149.236C29.5242 149.014 29.4264 148.727 29.4423 148.45Z" fill="#FB1C1C"/>
<path d="M29.4423 148.45L30.4407 148.508L30.4691 148.015L30.0951 147.693L29.4423 148.45ZM137 14.3855L136.456 15.2244L137 15.5774L137.544 15.2244L137 14.3855ZM244.558 148.45L243.905 147.693L243.531 148.015L243.559 148.508L244.558 148.45ZM244.235 149.236L244.912 149.971L244.912 149.971L244.235 149.236ZM137.677 247.376L138.355 248.112L138.355 248.112L137.677 247.376ZM136.323 247.376L135.645 248.112L135.645 248.112L136.323 247.376ZM29.7652 149.236L30.4427 148.5L30.4427 148.5L29.7652 149.236ZM-1 85C-1 110.535 10.517 133.464 28.7896 149.208L30.0951 147.693C12.2345 132.303 1 109.915 1 85H-1ZM88 -1C38.8796 -1 -1 37.4711 -1 85H1C1 38.6405 39.9182 1 88 1V-1ZM137.544 13.5465C123.38 4.35857 106.335 -1 88 -1V1C105.941 1 122.609 6.24253 136.456 15.2244L137.544 13.5465ZM186 -1C167.665 -1 150.62 4.35857 136.456 13.5465L137.544 15.2244C151.391 6.24253 168.059 1 186 1V-1ZM275 85C275 37.4711 235.12 -1 186 -1V1C234.082 1 273 38.6405 273 85H275ZM245.21 149.208C263.483 133.464 275 110.535 275 85H273C273 109.915 261.766 132.303 243.905 147.693L245.21 149.208ZM244.912 149.971C245.385 149.536 245.588 148.953 245.556 148.393L243.559 148.508C243.559 148.509 243.559 148.505 243.562 148.498C243.563 148.495 243.564 148.493 243.564 148.493C243.565 148.492 243.563 148.495 243.557 148.5L244.912 149.971ZM138.355 248.112L244.912 149.971L243.557 148.5L137 246.641L138.355 248.112ZM135.645 248.112C136.411 248.817 137.589 248.817 138.355 248.112L137 246.641L137 246.64L135.645 248.112ZM29.0877 149.971L135.645 248.112L137 246.64L30.4427 148.5L29.0877 149.971ZM28.444 148.393C28.4117 148.953 28.6151 149.536 29.0877 149.971L30.4427 148.5C30.4368 148.495 30.4351 148.492 30.4355 148.493C30.4359 148.493 30.4371 148.495 30.4383 148.498C30.4409 148.505 30.4406 148.509 30.4407 148.508L28.444 148.393Z" fill="#B41616" mask="url(#path-1-inside-1_2_20)"/>
</svg>
