<svg width="274" height="248" viewBox="0 0 274 248" fill="none" xmlns="http://www.w3.org/2000/svg">
<path fill-rule="evenodd" clip-rule="evenodd" d="M29.4423 148.45C11.3758 132.883 0 110.225 0 85C0 38.0558 39.3989 0 88 0C106.138 0 122.995 5.30055 137 14.3855C151.005 5.30055 167.862 0 186 0C234.601 0 274 38.0558 274 85C274 110.225 262.624 132.883 244.558 148.45C244.574 148.727 244.476 149.014 244.235 149.236L137.677 247.376C137.295 247.729 136.705 247.729 136.323 247.376L29.7652 149.236C29.5242 149.014 29.4264 148.727 29.4423 148.45Z" fill="white"/>
</svg>
